<svg width="374" height="311" viewBox="0 0 374 311" fill="none" xmlns="http://www.w3.org/2000/svg">
<path d="M100.249 220.637C99.4931 216.135 98.4751 211.662 98.0477 207.122C97.5212 201.529 97.3167 195.881 97.2786 190.254C97.2176 181.247 98.3392 172.361 99.7158 163.486C101.054 154.858 103.622 146.744 106.979 138.884C107.137 138.512 107.35 138.169 107.76 137.793C111.541 141.085 115.607 140.279 119.831 139.689C118.955 137.735 118.062 136.01 117.391 134.184C116.353 131.357 114.726 129.259 112.107 128.189C114.197 124.868 116.177 121.452 118.406 118.248C121.243 114.169 124.168 110.149 127.264 106.311C130.539 102.251 133.942 98.2994 137.495 94.5392C147.451 84.0019 158.39 74.8607 170.173 66.9802C180.321 60.1937 190.905 54.4383 202.267 50.5465C209.914 47.9274 217.718 46.115 225.716 46.9484C233.147 47.7226 240.312 49.8209 245.714 56.2047C248.804 59.8566 250.388 64.2571 250.58 69.2653C251.063 81.8628 246.218 92.405 239.947 102.285C237.675 105.865 234.705 108.891 232.192 112.296C230.906 114.038 229.816 115.992 228.84 117.973C227.746 120.192 227.718 122.539 229.268 124.556C230.804 126.555 232.972 126.954 235.08 126.269C238.049 125.304 240.883 123.844 243.829 122.779C247.47 121.464 251.093 120.069 255.082 121.025C257.882 121.697 260.288 123.095 262.091 125.415C266.977 131.701 269.533 139.145 270.236 147.509C269.657 147.567 269.202 147.288 268.818 147.378C267.845 147.606 266.903 148 265.948 148.328C266.227 149.291 266.483 150.263 266.796 151.212C266.904 151.539 267.154 151.808 267.657 152.61C266.063 152.61 264.881 152.456 263.757 152.672C263.148 152.789 262.32 153.442 262.177 154.028C262.051 154.545 262.702 155.335 263.085 155.947C263.272 156.244 263.629 156.408 263.978 156.688C263.281 157.906 262.472 158.93 262.101 160.122C261.881 160.826 262.355 161.796 262.517 162.646C263.156 162.429 263.957 162.408 264.4 161.955C265.329 161.006 266.07 159.831 266.961 158.653C267.253 159.051 267.378 159.288 267.556 159.452C268.193 160.039 268.848 160.601 269.496 161.172C269.804 160.204 270.17 159.252 270.392 158.261C270.488 157.83 270.143 157.265 270.263 156.856C270.373 156.479 270.838 156.229 271.147 155.923C270.99 172.932 265.757 188.033 256.821 201.925C254.444 202.024 252.356 202.051 250.097 202.046C248.999 201.99 248.073 201.967 247.182 201.752C247.227 197.932 247.245 194.303 247.244 190.674C247.243 186.965 247.224 183.256 247.218 179.383C247.203 178.895 247.183 178.569 247.191 178.061C247.219 176.953 247.219 176.027 247.219 175.041C244.32 175.041 241.671 175.041 238.845 175.021C235.87 175.014 233.073 175.026 230.18 174.946C228.801 172.74 227.61 170.547 226.217 168.524C221.667 161.919 217.044 155.377 212.438 148.659C212.334 146.282 212.241 144.056 212.259 141.771C212.56 141.466 212.714 141.163 212.946 140.987C215.146 139.321 215.576 137.664 214.494 134.844C213.89 134.844 213.277 134.844 212.665 134.635C212.58 132.565 212.577 130.692 212.391 128.842C211.851 123.442 210.474 118.42 206.678 114.626C196.116 104.07 181.45 105.357 172.556 117.625C171.152 119.562 169.853 121.591 168.454 123.532C166.79 125.842 164.796 127.593 162.131 128.39C157.585 129.75 156.586 131.638 157.639 136.739C158.277 139.828 159.013 142.895 159.793 145.943C160.315 147.982 159.807 149.589 158.484 151.001C156.598 153.013 154.568 154.893 152.889 157.1C149.651 161.358 146.349 165.607 143.579 170.232C141.168 174.258 140.686 178.996 141.753 183.788C142.667 187.888 144.928 191.066 147.343 194.02C144.309 194.02 141.46 194 138.593 193.836C137.556 189.602 136.082 185.749 133.72 181.856C133.356 186.848 132.071 190.866 128.672 193.778C128.371 194.035 128.378 195.017 128.518 195.579C130.64 204.133 130.228 212.465 126.713 220.576C126.386 220.584 126.199 220.576 126.046 220.42C126.202 219.902 126.325 219.533 126.389 219.338C125.194 218.612 124.088 217.94 123.05 217.19C123.145 217.047 123.172 216.981 123.313 216.984C124.533 217.445 125.639 217.838 126.71 218.217C129.254 212.646 129.788 202.823 127.907 197.425C123.542 197.466 120.159 194.942 117.079 192.061C115.665 193.78 114.338 195.393 112.863 197.036C112.28 195.732 111.561 194.417 111.488 193.06C111.414 191.681 111.94 190.249 112.269 188.86C112.912 186.145 111.695 183.891 108.589 182.145C107.455 181.507 105.577 182.458 104.37 184.407C103.776 185.366 103.234 186.404 102.867 187.489C102.259 189.289 101.909 191.199 101.269 192.983C100.661 194.678 100.879 196.484 100.786 198.153C100.399 205.051 102.207 211.226 107.01 216.186C107.661 217.737 108.251 219.156 108.665 220.587C105.743 220.611 102.996 220.624 100.249 220.637ZM214.282 66.3664L214.268 66.2604C214.268 66.2604 214.332 66.3328 214.351 66.6536C214.102 67.3516 213.799 68.0326 213.617 68.7513C213.302 69.9998 212.879 71.2682 212.86 72.535C212.849 73.2693 213.39 74.3071 213.96 74.6632C214.391 74.9326 215.295 74.4217 215.924 74.1015C216.368 73.8751 216.704 73.387 217.305 72.8069C217.423 74.4954 217.394 75.8265 217.654 77.0841C217.795 77.768 218.346 78.6908 218.864 78.8355C219.343 78.969 220.049 78.2463 220.604 77.8199C220.823 77.6515 220.906 77.2647 221.147 76.7886C221.997 77.3972 222.759 77.9409 223.519 78.4884C224.501 79.1953 225.608 79.8893 226.503 78.6009C227.442 77.2486 226.194 76.5155 225.462 75.7557C224.722 74.9874 223.908 74.3074 222.993 73.4664C223.568 73.0508 223.933 72.8923 224.16 72.6014C224.595 72.0431 224.951 71.4097 225.341 70.8074C224.737 70.4187 224.159 69.9642 223.52 69.6696C223.209 69.5259 222.785 69.7072 222.413 69.6936C221.831 69.6724 221.25 69.6108 220.669 69.5662C220.756 68.9232 220.688 68.1804 220.96 67.6555C221.84 65.9617 221.056 64.9604 219.739 64.8357C218.412 64.7101 217.023 65.2255 215.679 65.5516C215.196 65.6688 214.765 66.0526 214.282 66.3664ZM132.92 181.164C132.495 180.271 132.175 179.29 131.628 178.501C128.492 173.978 124.931 169.952 120.253 167.376C117.282 165.74 114.945 166.005 113.039 168.068C119.481 175.286 124.651 183.459 127.892 193.221C131.619 190.192 132.715 186.098 132.92 181.164ZM120.333 179.056C117.774 175.538 115.216 172.02 112.596 168.416C109.718 172.596 110.16 177.756 113.326 180.864C115.871 183.362 117.915 186.149 117.397 190.294C117.359 190.599 117.411 191.053 117.589 191.236C120.462 194.182 123.625 196.452 127.897 196.552C126.37 190.121 123.728 184.555 120.333 179.056Z" fill="#ECF1F8"/>
<path d="M163.836 261.907C157.297 263.72 150.68 264.922 143.663 264.903C140.62 262.598 137.838 260.416 134.993 258.117C130.237 253.209 126.389 247.797 124.762 240.786C122.941 232.937 126.032 226.789 132.994 224.359C133.645 224.132 134.312 223.961 135.128 223.764C139.082 223 142.825 223.478 146.669 224.436C147.474 224.695 148.16 224.886 148.982 225.134C152.877 226.424 156.634 227.658 160.5 228.99C162.056 229.564 163.503 230.04 165.074 230.587C167.476 231.411 169.754 232.162 172.168 232.967C172.963 233.173 173.621 233.326 174.377 233.589C175.979 234.137 177.469 234.646 178.989 235.002C183.553 236.071 188.168 237.606 192.819 236.16C199.396 234.115 205.873 231.678 212.539 229.384C215.914 228.14 219.102 226.755 222.383 225.736C228.642 223.791 234.954 222.054 241.244 220.231C238.215 222.859 235.288 225.649 232.141 228.088C215.866 240.702 198.146 250.118 179.353 257.121C179.119 257.208 178.892 257.321 178.472 257.309C175.294 254.975 172.37 252.635 169.303 250.558C162.132 245.703 154.8 241.148 146.668 238.557C143.916 237.681 141.004 237.424 138.166 236.884C138.128 237.101 138.09 237.318 138.052 237.535C138.455 237.679 138.85 237.91 139.261 237.952C144.144 238.451 148.167 240.878 151.428 244.821C155.623 249.894 159.72 255.067 163.806 260.249C164.057 260.568 163.837 261.344 163.836 261.907Z" fill="#3F3F5F"/>
<path d="M148.845 225.077C148.16 224.886 147.474 224.695 146.671 224.248C146.554 223.056 146.554 222.12 146.554 221.156C142.56 221.156 138.855 221.156 134.971 221.156C134.971 222.122 134.971 222.943 134.971 223.764C134.312 223.961 133.645 224.132 132.994 224.359C126.032 226.789 122.941 232.937 124.762 240.786C126.389 247.797 130.237 253.209 134.976 258.317C134.989 260.496 134.958 262.358 134.927 264.22C132.926 263.536 130.925 262.852 128.9 261.987C129.472 261.701 130.069 261.595 130.642 261.495C131.137 258.887 131.06 258.757 128.934 258.755C127.205 258.754 125.475 258.78 123.746 258.794C119.473 256.215 115.903 252.585 113.003 248.413C109.802 243.809 107.279 238.626 104.603 233.556C107.321 233.417 109.897 233.417 112.403 233.417C112.403 230.442 112.403 227.867 112.403 225.22C108.636 225.22 105.039 225.22 101.441 225.22C101.043 223.798 100.645 222.375 100.248 220.795C102.996 220.624 105.743 220.611 108.839 220.604C114.797 220.596 120.405 220.583 126.013 220.569C126.199 220.577 126.386 220.584 126.881 220.598C128.717 220.605 130.244 220.605 131.96 220.605C131.96 211.655 131.96 202.96 131.96 193.979C134.306 193.979 136.459 193.979 138.611 193.979C141.46 194 144.309 194.02 147.454 194.074C149.989 196.352 152.336 198.17 155.544 196.684C154.991 199.004 153.428 201.315 156.259 202.991C156.303 203.017 156.315 203.108 156.35 203.316C156.106 204.519 155.974 205.633 155.58 206.619C154.26 209.927 152.846 213.19 151.294 216.466C146.09 216.462 141.061 216.431 136.033 216.5C135.459 216.508 134.891 217.072 134.321 217.378C134.883 217.624 135.443 218.079 136.007 218.085C141.035 218.142 146.064 218.12 151.079 218.271C150.325 220.64 149.585 222.858 148.845 225.077ZM136.018 201.526C138.232 201.526 140.445 201.526 142.755 201.526C142.755 199.784 142.755 198.314 142.755 196.761C139.895 196.761 137.153 196.761 134.278 196.761C134.278 198.026 134.321 199.123 134.266 200.213C134.206 201.398 134.808 201.601 136.018 201.526Z" fill="#FAD29D"/>
<path d="M241.361 220.179C234.954 222.054 228.642 223.791 222.383 225.736C219.102 226.755 215.914 228.139 212.444 229.275C211.955 228.49 211.589 227.811 211.476 227.084C210.668 221.895 209.911 216.696 209.264 211.512C213.294 214.032 217.243 216.478 221.726 217.438C226.051 218.364 230.425 219.006 234.628 216.789C236.721 215.684 237.365 213.666 236.446 211.295C236.132 210.483 235.65 209.752 235.242 208.823C234.616 206.563 233.993 204.464 233.545 202.362C237.453 202.359 241.185 202.378 244.916 202.34C245.562 202.333 246.205 202.08 246.924 201.934C246.998 201.928 247.147 201.943 247.147 201.943C248.073 201.967 248.999 201.99 250.071 202.227C250.212 205.317 250.208 208.193 250.204 211.07C247.296 214.089 244.387 217.107 241.361 220.179Z" fill="#FAD29D"/>
<path d="M163.995 261.884C163.837 261.344 164.057 260.568 163.806 260.249C159.72 255.067 155.623 249.894 151.428 244.821C148.167 240.878 144.144 238.451 139.261 237.952C138.85 237.91 138.455 237.679 138.052 237.535C138.09 237.318 138.128 237.101 138.166 236.884C141.004 237.424 143.916 237.681 146.668 238.557C154.8 241.148 162.132 245.703 169.303 250.558C172.37 252.635 175.294 254.975 178.332 257.321C173.639 258.918 168.897 260.389 163.995 261.884Z" fill="#202036"/>
<path d="M271.288 155.913C270.838 156.229 270.373 156.479 270.263 156.856C270.143 157.265 270.488 157.83 270.392 158.261C270.17 159.252 269.804 160.204 269.496 161.172C268.848 160.601 268.193 160.039 267.556 159.452C267.378 159.288 267.253 159.052 266.961 158.653C266.07 159.831 265.329 161.006 264.4 161.955C263.957 162.408 263.156 162.429 262.517 162.646C262.355 161.796 261.881 160.826 262.101 160.122C262.472 158.93 263.281 157.906 263.978 156.688C263.629 156.408 263.272 156.244 263.085 155.947C262.702 155.335 262.051 154.545 262.177 154.028C262.32 153.442 263.148 152.789 263.757 152.672C264.881 152.456 266.063 152.61 267.657 152.61C267.154 151.808 266.904 151.539 266.796 151.212C266.483 150.263 266.227 149.291 265.948 148.328C266.903 148 267.845 147.606 268.818 147.378C269.202 147.288 269.657 147.567 270.23 147.695C271.434 148.401 272.546 149.004 273.531 149.799C275.092 151.057 275.526 153.896 274.585 155.779C273.582 157.783 272.491 156.196 271.288 155.913Z" fill="#F08914"/>
<path d="M111.94 128.182C114.726 129.259 116.353 131.358 117.391 134.184C118.062 136.01 118.955 137.735 119.831 139.689C115.607 140.279 111.541 141.085 107.869 137.713C106.378 135.309 106.138 132.734 106.28 129.997C106.35 128.654 106.896 128.216 107.896 128.173C109.186 128.117 110.48 128.169 111.94 128.182Z" fill="#F08914"/>
<path d="M101.463 225.364C105.039 225.22 108.636 225.22 112.403 225.22C112.403 227.867 112.403 230.442 112.403 233.417C109.897 233.417 107.321 233.417 104.574 233.414C103.43 230.776 102.457 228.142 101.463 225.364Z" fill="#DDA361"/>
<path d="M250.318 211.014C250.208 208.193 250.212 205.316 250.242 202.259C252.356 202.051 254.444 202.024 256.702 201.985C254.725 204.967 252.579 207.962 250.318 211.014Z" fill="#DDA361"/>
<path d="M135.051 264.314C134.958 262.358 134.989 260.497 135.038 258.434C137.838 260.416 140.62 262.598 143.486 264.88C140.771 264.788 137.973 264.598 135.051 264.314Z" fill="#DDA361"/>
<path d="M123.819 258.91C125.475 258.78 127.205 258.753 128.934 258.755C131.06 258.757 131.137 258.887 130.642 261.494C130.069 261.595 129.472 261.701 128.777 261.924C127.084 261.037 125.488 260.031 123.819 258.91Z" fill="#F9D5B9"/>
<path d="M155.556 196.528C152.337 198.17 149.989 196.352 147.639 194.054C144.928 191.065 142.667 187.888 141.753 183.788C140.686 178.996 141.168 174.258 143.579 170.232C146.349 165.607 149.651 161.358 152.889 157.1C154.568 154.893 156.598 153.013 158.484 151.001C159.807 149.589 160.315 147.982 159.793 145.943C159.013 142.895 158.277 139.828 157.639 136.739C156.586 131.638 157.585 129.75 162.131 128.39C164.796 127.592 166.79 125.842 168.454 123.532C169.853 121.591 171.152 119.562 172.556 117.625C181.45 105.357 196.116 104.07 206.678 114.626C210.474 118.42 211.851 123.442 212.391 128.842C212.577 130.692 212.58 132.565 212.581 134.682C210.405 135.655 209.621 137.314 209.804 139.62C209.884 140.633 210.058 141.637 210.115 142.788C207.291 143.884 204.542 143.65 201.691 143.154C201.399 143.54 200.954 144.127 200.527 144.548C201.252 142.245 200.896 140.288 199.639 138.551C198.158 136.506 196.596 134.534 195.104 132.5C191.584 127.701 187.835 123.01 188.562 115.99C185.227 117.16 183.313 119.674 182.162 122.812C180.785 126.568 179.564 130.417 178.567 134.318C177.698 137.72 177.433 141.25 178.334 144.732C176.369 145.007 174.563 145.322 172.748 145.533C171.678 145.657 171.091 145.941 171.535 147.339C173.224 152.657 174.862 157.994 176.408 163.404C169.79 166.574 165.035 171.651 162.236 178.882C159.968 184.744 157.78 190.644 155.556 196.528Z" fill="#202036"/>
<path d="M126.046 220.42C120.405 220.583 114.797 220.596 109.015 220.592C108.251 219.156 107.661 217.737 107.124 216.091C107.105 214.795 106.867 213.699 106.996 212.66C107.339 209.913 107.842 207.19 108.244 204.32C108.292 203.843 108.377 203.501 108.461 203.174C108.46 203.187 108.436 203.182 108.568 203.233C108.92 203.104 109.14 202.922 109.408 202.617C110.641 200.664 111.826 198.836 113.011 197.007C114.338 195.393 115.665 193.78 117.079 192.061C120.159 194.942 123.542 197.466 127.907 197.425C129.788 202.823 129.254 212.646 126.71 218.217C125.639 217.838 124.533 217.446 123.179 216.932C116.842 213.898 113.213 208.368 110.25 202.052C110.204 202.81 110.304 203.458 110.55 204.027C112.176 207.788 114.239 211.26 117.224 213.81C118.931 215.268 121.049 216.135 122.982 217.268C124.088 217.94 125.194 218.612 126.389 219.338C126.325 219.533 126.202 219.902 126.046 220.42Z" fill="#47B483"/>
<path d="M212.449 148.811C217.044 155.377 221.667 161.919 226.217 168.524C227.61 170.547 228.801 172.74 230.216 175.096C230.798 177.181 231.534 179.004 231.643 180.871C231.893 185.148 230.572 189.083 228.77 192.855C228.17 192.132 227.701 191.427 227.272 190.576C229.268 187.978 228.657 185.914 227 183.433C221.604 175.353 215.451 168.307 207.229 163.71C209.004 158.649 210.726 153.73 212.449 148.811Z" fill="#202036"/>
<path d="M112.863 197.036C111.826 198.835 110.641 200.664 109.272 202.556C108.87 202.807 108.653 202.995 108.436 203.182C108.436 203.182 108.46 203.187 108.363 203.154C108.141 202.953 108.016 202.785 107.869 202.45C107.624 198.617 107.402 194.951 107.179 191.285C107.135 191.279 107.091 191.273 107.047 191.268C107.047 194.552 107.047 197.836 107.047 201.187C106.393 201.119 105.964 201.074 105.459 200.925C104.943 200.609 104.504 200.396 104.024 200.089C103.869 199.937 103.756 199.879 103.6 199.711C103.386 199.45 103.215 199.3 103.001 199.092C102.894 198.959 102.827 198.891 102.672 198.713C102.321 198.313 102.053 198.028 101.785 197.744C101.704 197.837 101.624 197.931 101.544 198.024C101.841 198.379 102.138 198.734 102.466 199.187C102.6 199.357 102.703 199.429 102.849 199.612C103.064 199.872 103.236 200.022 103.471 200.229C103.623 200.363 103.721 200.418 103.911 200.55C104.414 200.89 104.833 201.133 105.376 201.438C106.175 201.983 106.849 202.465 107.554 203.119C107.816 203.679 108.048 204.068 108.28 204.457C107.842 207.19 107.339 209.913 106.997 212.66C106.867 213.699 107.105 214.794 107.062 215.96C102.207 211.226 100.399 205.051 100.786 198.153C100.879 196.484 100.661 194.678 101.269 192.983C101.909 191.199 102.259 189.289 102.867 187.489C103.234 186.404 103.776 185.366 104.37 184.407C105.577 182.458 107.455 181.507 108.589 182.145C111.695 183.891 112.912 186.145 112.269 188.86C111.94 190.249 111.414 191.681 111.488 193.06C111.561 194.417 112.28 195.732 112.863 197.036ZM108.679 183.143C108.498 183.354 108.317 183.565 108.136 183.775C108.274 183.865 108.411 183.955 108.548 184.044C108.65 183.838 108.752 183.631 108.679 183.143ZM107.628 190.548C107.552 190.512 107.476 190.477 107.4 190.441C107.421 190.534 107.442 190.626 107.628 190.548Z" fill="#219965"/>
<path d="M212.438 148.659C210.726 153.73 209.004 158.649 207.088 163.691C204.382 163.239 201.871 162.665 199.334 161.95C198.716 160.69 198.092 159.589 197.537 158.447C195.961 155.208 195.883 152.101 198.058 149.061C199.01 147.731 199.7 146.171 200.509 144.715C200.954 144.128 201.399 143.54 201.691 143.154C204.542 143.65 207.291 143.884 210.25 142.79C211.022 142.377 211.585 142.104 212.148 141.831C212.241 144.057 212.334 146.282 212.438 148.659Z" fill="#2E2B42"/>
<path d="M247.182 201.752C247.147 201.943 246.998 201.928 246.748 201.924C243.991 201.791 241.485 201.662 238.987 201.338C239.004 192.442 239.013 183.742 239.023 175.041C241.671 175.041 244.32 175.041 247.219 175.041C247.219 176.027 247.219 176.953 247.024 178.065C245.625 178.515 244.176 177.641 243.175 178.837C243.199 179.074 243.224 179.31 243.248 179.546C244.57 179.546 245.892 179.546 247.213 179.546C247.224 183.256 247.243 186.965 247.244 190.674C247.244 194.303 247.227 197.932 247.182 201.752Z" fill="#DDA361"/>
<path d="M132.913 181.346C132.715 186.098 131.619 190.192 127.892 193.221C124.651 183.459 119.481 175.286 113.039 168.068C114.945 166.005 117.282 165.74 120.253 167.376C124.931 169.952 128.492 173.978 131.628 178.501C132.175 179.29 132.495 180.271 132.913 181.346Z" fill="#47B483"/>
<path d="M238.845 175.021C239.014 183.742 239.004 192.442 238.813 201.337C236.758 201.531 234.885 201.531 232.912 201.446C232.501 200.589 232.188 199.817 232.05 199.044C233.709 198.994 235.193 198.943 236.677 198.893C236.667 198.531 236.656 198.168 236.646 197.806C234.919 197.806 233.193 197.806 231.358 197.734C230.466 196.066 229.683 194.47 228.9 192.873C230.572 189.083 231.893 185.148 231.643 180.871C231.534 179.004 230.798 177.181 230.311 175.187C233.073 175.026 235.87 175.014 238.845 175.021Z" fill="#FAD29D"/>
<path d="M120.406 179.181C123.728 184.555 126.37 190.121 127.897 196.552C123.625 196.452 120.462 194.182 117.589 191.236C117.411 191.053 117.359 190.599 117.397 190.294C117.915 186.149 115.871 183.362 113.326 180.864C110.16 177.756 109.718 172.597 112.596 168.417C115.216 172.02 117.774 175.538 120.406 179.181Z" fill="#47B483"/>
<path d="M138.593 193.836C136.459 193.98 134.306 193.98 131.96 193.98C131.96 202.96 131.96 211.655 131.96 220.605C130.244 220.605 128.717 220.605 127.021 220.583C130.228 212.465 130.64 204.133 128.518 195.579C128.378 195.017 128.372 194.035 128.672 193.778C132.071 190.866 133.356 186.848 133.72 181.856C136.082 185.749 137.556 189.602 138.593 193.836Z" fill="#47B483"/>
<path d="M214.311 66.3147C214.765 66.0526 215.196 65.6688 215.679 65.5516C217.023 65.2255 218.412 64.7101 219.74 64.8358C221.056 64.9604 221.84 65.9617 220.96 67.6555C220.688 68.1804 220.756 68.9232 220.669 69.5662C221.25 69.6108 221.831 69.6724 222.413 69.6936C222.785 69.7072 223.209 69.5259 223.52 69.6696C224.159 69.9642 224.737 70.4187 225.341 70.8074C224.951 71.4097 224.595 72.0431 224.16 72.6014C223.933 72.8923 223.568 73.0508 222.993 73.4664C223.908 74.3074 224.722 74.9874 225.462 75.7557C226.194 76.5155 227.442 77.2486 226.503 78.6009C225.608 79.8894 224.501 79.1953 223.519 78.4885C222.759 77.9409 221.997 77.3972 221.147 76.7886C220.906 77.2647 220.823 77.6515 220.604 77.8199C220.049 78.2463 219.343 78.969 218.864 78.8355C218.346 78.6909 217.795 77.768 217.654 77.0841C217.394 75.8265 217.424 74.4954 217.305 72.8069C216.704 73.387 216.368 73.8751 215.924 74.1015C215.295 74.4217 214.391 74.9326 213.96 74.6632C213.39 74.3071 212.849 73.2693 212.86 72.535C212.879 71.2682 213.302 69.9998 213.618 68.7513C213.799 68.0326 214.102 67.3516 214.334 66.4925C214.318 66.3314 214.311 66.3147 214.311 66.3147Z" fill="#F08914"/>
<path d="M212.259 141.771C211.585 142.104 211.022 142.376 210.324 142.647C210.058 141.637 209.884 140.633 209.804 139.62C209.621 137.314 210.405 135.655 212.579 134.89C213.277 134.844 213.89 134.844 214.494 134.844C215.576 137.664 215.146 139.321 212.946 140.987C212.714 141.163 212.56 141.466 212.259 141.771Z" fill="#F08914"/>
<path d="M123.05 217.19C121.049 216.135 118.931 215.269 117.224 213.81C114.239 211.26 112.176 207.788 110.55 204.027C110.304 203.458 110.204 202.81 110.25 202.052C113.213 208.368 116.842 213.898 123.066 216.863C123.172 216.981 123.145 217.047 123.05 217.19Z" fill="#219965"/>
<path d="M247.218 179.383C245.892 179.546 244.57 179.546 243.248 179.546C243.224 179.31 243.199 179.073 243.175 178.837C244.176 177.64 245.625 178.514 246.996 178.247C247.183 178.569 247.203 178.895 247.218 179.383Z" fill="#F9D5B9"/>
<path d="M214.325 66.3322C214.332 66.3329 214.268 66.2605 214.268 66.2605C214.268 66.2605 214.282 66.3665 214.296 66.3406C214.311 66.3147 214.318 66.3314 214.325 66.3322Z" fill="#F08914"/>
<path d="M199.359 162.09C201.87 162.665 204.382 163.239 207.035 163.832C215.451 168.308 221.604 175.354 227 183.433C228.657 185.914 229.268 187.978 227.18 190.663C225.101 194.538 222.998 198.039 219.727 200.632C218.988 200.338 218.238 200.169 217.821 199.662C216.93 198.579 216.212 197.321 215.364 196.027C215.095 195.839 214.884 195.759 214.66 195.537C213.908 194.296 213.275 192.983 211.602 193.67C211.442 193.836 211.369 193.953 211.305 194.069C211.315 194.068 211.311 194.048 211.199 194.113C209.918 195.944 208.749 197.709 207.45 199.452C205.028 198.011 203.291 196.062 202.374 193.268C201.211 189.725 199.995 186.205 198.769 182.512C198.675 180.45 198.614 178.551 198.555 176.545C198.449 176.392 198.339 176.346 198.057 176.255C193.506 176.232 189.127 176.255 184.624 176.261C184.347 176.514 184.194 176.784 184.01 177.246C183.999 181.601 184.019 185.764 184.015 190.062C183.99 190.288 183.988 190.379 183.862 190.549C183.306 190.662 182.853 190.617 182.447 190.75C181.772 190.973 180.819 191.126 180.561 191.655C180.33 192.129 180.71 193.219 181.114 193.778C182.35 195.491 183.725 197.082 185.051 198.716C186.683 200.727 188.368 202.638 190.928 203.155C192.265 203.424 193.655 203.59 194.905 204.132C198.045 205.494 201.119 207.044 204.192 208.693C203.928 212.079 203.701 215.292 203.455 218.503C202.907 225.629 199.175 230.954 193.603 232.137C187.865 233.356 182.066 233.919 176.214 233.121C175.591 233.037 174.925 233.35 174.279 233.479C173.621 233.326 172.963 233.173 172.194 232.823C172.323 231.919 172.633 231.23 172.789 230.501C173.671 226.381 174.516 222.252 175.386 217.959C175.394 217.344 175.388 216.896 175.391 216.256C175.265 211.355 175.129 206.647 175.11 201.997C176.395 203.034 177.562 204.012 178.729 204.99C178.949 204.728 179.169 204.466 179.389 204.204C177.088 201.101 174.787 197.997 172.486 194.893C172.263 195.053 172.04 195.212 171.816 195.372C172.79 197.552 173.763 199.732 174.623 201.987C172.572 205.719 170.636 209.376 168.644 213.14C167.819 212.332 167.134 211.661 166.389 210.871C164.022 208.618 161.773 206.399 159.376 204.396C158.554 203.708 157.364 203.562 156.342 203.168C156.315 203.108 156.303 203.017 156.259 202.991C153.428 201.315 154.991 199.004 155.544 196.684C157.78 190.645 159.968 184.744 162.236 178.882C165.035 171.651 169.79 166.574 176.544 163.382C178.549 162.706 180.306 162.133 182.107 161.706C183.516 162.778 184.815 163.864 186.261 164.595C189.713 166.342 195.845 165.763 198.423 162.569C198.811 162.395 199.085 162.243 199.359 162.09Z" fill="#FEFEFE"/>
<path d="M156.35 203.316C157.364 203.562 158.554 203.708 159.376 204.395C161.773 206.399 164.022 208.618 166.369 211.036C164.919 215.929 163.429 220.539 161.844 225.249C161.297 226.529 160.844 227.71 160.392 228.891C156.634 227.658 152.877 226.424 148.982 225.133C149.585 222.858 150.325 220.64 151.131 218.138C151.288 217.393 151.378 216.932 151.469 216.47C152.846 213.19 154.26 209.927 155.58 206.619C155.974 205.633 156.106 204.519 156.35 203.316Z" fill="#F9D3B6"/>
<path d="M174.377 233.589C174.925 233.35 175.591 233.036 176.214 233.121C182.066 233.918 187.865 233.356 193.603 232.137C199.175 230.954 202.907 225.629 203.455 218.503C203.701 215.292 203.928 212.079 204.331 208.707C206.045 209.531 207.591 210.516 209.138 211.5C209.911 216.696 210.668 221.895 211.476 227.084C211.589 227.811 211.955 228.49 212.298 229.3C205.873 231.678 199.396 234.115 192.819 236.16C188.168 237.606 183.553 236.071 178.989 235.002C177.469 234.646 175.979 234.137 174.377 233.589Z" fill="#C3C6D7"/>
<path d="M161.939 225.15C163.429 220.539 164.919 215.929 166.429 211.154C167.134 211.66 167.819 212.332 168.644 213.14C170.636 209.376 172.572 205.719 174.686 201.994C174.864 201.927 174.993 201.938 174.993 201.938C175.129 206.647 175.265 211.355 175.219 216.261C172.543 216.459 170.049 216.417 167.558 216.497C167.07 216.512 166.594 216.999 166.112 217.268C166.581 217.551 167.044 218.063 167.521 218.079C170.136 218.162 172.755 218.123 175.373 218.126C174.516 222.252 173.671 226.381 172.789 230.501C172.633 231.23 172.323 231.919 172.058 232.77C169.754 232.162 167.476 231.411 165.073 230.397C164.948 228.537 164.948 226.939 164.948 225.15C163.753 225.15 162.846 225.15 161.939 225.15Z" fill="#FAD29D"/>
<path d="M135.128 223.764C134.971 222.943 134.971 222.122 134.971 221.156C138.855 221.156 142.56 221.156 146.554 221.156C146.554 222.12 146.554 223.056 146.552 224.18C142.825 223.478 139.082 223 135.128 223.764Z" fill="#DDA361"/>
<path d="M161.844 225.249C162.846 225.15 163.753 225.15 164.948 225.15C164.948 226.94 164.948 228.537 164.949 230.325C163.503 230.04 162.056 229.564 160.5 228.99C160.844 227.71 161.297 226.529 161.844 225.249Z" fill="#DDA361"/>
<path d="M135.841 201.525C134.808 201.601 134.206 201.398 134.266 200.213C134.321 199.122 134.278 198.026 134.278 196.761C137.153 196.761 139.895 196.761 142.755 196.761C142.755 198.314 142.755 199.784 142.755 201.526C140.445 201.526 138.232 201.526 135.841 201.525Z" fill="#DDA361"/>
<path d="M151.294 216.466C151.378 216.932 151.288 217.394 151.145 217.988C146.064 218.12 141.035 218.142 136.007 218.085C135.443 218.079 134.883 217.624 134.321 217.378C134.891 217.072 135.459 216.508 136.033 216.5C141.061 216.431 146.09 216.462 151.294 216.466Z" fill="#F9D5B9"/>
<path d="M209.264 211.512C207.591 210.516 206.045 209.531 204.359 208.533C201.119 207.044 198.045 205.494 194.905 204.132C193.655 203.59 192.265 203.424 190.928 203.154C188.368 202.638 186.683 200.726 185.051 198.716C183.725 197.082 182.35 195.491 181.114 193.777C180.71 193.219 180.33 192.129 180.561 191.655C180.819 191.126 181.772 190.973 182.447 190.75C182.853 190.617 183.306 190.662 184.026 190.599C184.886 190.556 185.459 190.541 186.136 190.611C187.246 190.843 188.251 190.99 189.389 191.195C191.412 191.656 193.287 192.203 195.192 192.425C197.458 192.69 198.083 191.942 198.252 189.46C198.406 187.196 198.617 184.936 198.802 182.675C199.995 186.205 201.211 189.725 202.374 193.267C203.291 196.062 205.028 198.011 207.524 199.562C208.421 200.025 209.114 200.357 209.935 200.753C211.627 201.195 213.192 201.573 214.911 201.943C216.687 201.797 218.309 201.657 220.069 201.523C220.756 201.724 221.293 202.007 221.856 202.1C223.597 202.387 225.377 202.452 227.088 202.874C230.5 203.715 232.795 206.5 235.244 208.983C235.65 209.752 236.132 210.483 236.446 211.295C237.365 213.666 236.721 215.684 234.628 216.788C230.425 219.006 226.051 218.364 221.726 217.438C217.243 216.478 213.294 214.032 209.264 211.512Z" fill="#F9D3B6"/>
<path d="M235.242 208.823C232.795 206.5 230.5 203.715 227.088 202.874C225.377 202.452 223.597 202.387 221.856 202.1C221.293 202.008 220.756 201.724 220.061 201.371C219.9 201.01 219.884 200.807 219.867 200.604C222.998 198.038 225.101 194.538 227.14 190.81C227.701 191.427 228.17 192.132 228.77 192.855C229.683 194.47 230.466 196.066 231.377 197.866C231.629 198.394 231.753 198.719 231.876 199.045C232.188 199.817 232.501 200.589 232.917 201.569C233.137 201.974 233.253 202.17 233.369 202.366C233.993 204.464 234.616 206.563 235.242 208.823Z" fill="#F7B699"/>
<path d="M233.545 202.362C233.253 202.17 233.137 201.974 233.016 201.655C234.885 201.531 236.758 201.531 238.805 201.532C241.485 201.662 243.991 201.791 246.673 201.93C246.205 202.08 245.562 202.333 244.916 202.34C241.185 202.378 237.453 202.359 233.545 202.362Z" fill="#F9D5B9"/>
<path d="M199.334 161.95C199.085 162.242 198.811 162.395 198.256 162.555C197.248 162.459 196.502 162.442 195.8 162.237C192.579 161.296 191.114 158.489 190.012 155.351C188.939 152.296 187.561 150.986 185.223 150.931C182.458 149.415 180.035 147.655 178.489 144.729C177.433 141.25 177.698 137.72 178.567 134.318C179.564 130.417 180.785 126.568 182.162 122.812C183.313 119.674 185.227 117.16 188.562 115.99C187.835 123.01 191.584 127.701 195.104 132.5C196.596 134.534 198.158 136.507 199.639 138.551C200.896 140.288 201.252 142.245 200.527 144.548C199.7 146.17 199.01 147.731 198.058 149.061C195.883 152.101 195.961 155.208 197.537 158.447C198.092 159.589 198.716 160.69 199.334 161.95Z" fill="#F9D5B9"/>
<path d="M178.333 144.732C180.035 147.655 182.458 149.415 185.271 151.095C186.658 156.148 185.874 158.532 182.063 161.559C180.306 162.133 178.549 162.706 176.655 163.302C174.862 157.994 173.223 152.657 171.535 147.339C171.091 145.941 171.678 145.657 172.748 145.533C174.563 145.322 176.369 145.007 178.333 144.732Z" fill="#2E2B42"/>
<path d="M108.244 204.32C108.048 204.068 107.816 203.679 107.646 203.036C107.769 202.728 107.83 202.672 107.89 202.617C108.016 202.785 108.141 202.953 108.364 203.14C108.377 203.501 108.292 203.843 108.244 204.32Z" fill="#ECF1F8"/>
<path d="M108.568 203.233C108.653 202.995 108.87 202.807 109.224 202.681C109.14 202.922 108.92 203.104 108.568 203.233Z" fill="#ECF1F8"/>
<path d="M105.535 201.029C105.964 201.074 106.393 201.119 107.047 201.187C107.047 197.836 107.047 194.552 107.047 191.268C107.091 191.274 107.135 191.279 107.179 191.285C107.402 194.951 107.624 198.617 107.869 202.451C107.83 202.673 107.769 202.728 107.616 202.865C106.849 202.466 106.175 201.983 105.448 201.353C105.442 201.146 105.489 201.088 105.535 201.029Z" fill="#ECF1F8"/>
<path d="M105.324 201.29C104.833 201.133 104.414 200.89 103.97 200.482C103.945 200.318 104.065 200.183 104.065 200.183C104.504 200.396 104.943 200.609 105.459 200.925C105.489 201.088 105.442 201.146 105.324 201.29Z" fill="#ECF1F8"/>
<path d="M108.767 183.284C108.752 183.631 108.65 183.838 108.548 184.044C108.411 183.955 108.274 183.865 108.136 183.775C108.317 183.565 108.498 183.354 108.767 183.284Z" fill="#ECF1F8"/>
<path d="M102.435 199.088C102.138 198.734 101.841 198.379 101.544 198.024C101.624 197.931 101.704 197.838 101.785 197.744C102.053 198.028 102.321 198.313 102.588 198.771C102.536 198.993 102.486 199.041 102.435 199.088Z" fill="#ECF1F8"/>
<path d="M103.045 199.149C103.215 199.3 103.386 199.45 103.535 199.793C103.479 200.048 103.443 200.109 103.408 200.171C103.236 200.022 103.064 199.873 102.914 199.529C102.973 199.272 103.009 199.211 103.045 199.149Z" fill="#ECF1F8"/>
<path d="M107.545 190.633C107.442 190.626 107.421 190.534 107.4 190.441C107.476 190.477 107.552 190.512 107.545 190.633Z" fill="#ECF1F8"/>
<path d="M103.886 200.386C103.721 200.418 103.623 200.363 103.471 200.229C103.443 200.109 103.479 200.048 103.578 199.904C103.756 199.879 103.869 199.937 104.023 200.089C104.065 200.183 103.945 200.318 103.886 200.386Z" fill="#ECF1F8"/>
<path d="M102.67 198.887C102.827 198.891 102.894 198.959 103.001 199.092C103.009 199.211 102.973 199.272 102.872 199.417C102.703 199.429 102.6 199.357 102.466 199.187C102.486 199.041 102.536 198.993 102.67 198.887Z" fill="#ECF1F8"/>
<path d="M232.05 199.044C231.753 198.719 231.629 198.394 231.486 197.937C233.193 197.806 234.919 197.806 236.646 197.806C236.656 198.168 236.667 198.531 236.677 198.893C235.193 198.943 233.709 198.994 232.05 199.044Z" fill="#F9D5B9"/>
<path d="M189.255 191.137C188.251 190.99 187.246 190.843 186.035 190.475C185.232 190.145 184.635 190.036 184.039 189.927C184.019 185.764 183.999 181.601 184.124 177.234C184.428 176.779 184.588 176.528 184.748 176.277C189.127 176.255 193.506 176.232 198.054 176.343C198.223 176.476 198.227 176.652 198.227 176.845C198.227 178.214 198.163 179.393 198.24 180.562C198.528 184.923 196.497 187.761 193.259 189.675C192.037 190.397 190.596 190.663 189.255 191.137Z" fill="#3F3F5F"/>
<path d="M182.107 161.706C185.874 158.532 186.658 156.148 185.376 151.167C187.561 150.986 188.939 152.296 190.012 155.351C191.114 158.489 192.579 161.296 195.8 162.237C196.502 162.442 197.248 162.459 198.142 162.577C195.845 165.763 189.713 166.341 186.26 164.595C184.815 163.864 183.516 162.777 182.107 161.706Z" fill="#F9D3B6"/>
<path d="M189.389 191.195C190.596 190.663 192.037 190.397 193.259 189.675C196.497 187.761 198.528 184.923 198.24 180.562C198.163 179.394 198.227 178.214 198.308 176.845C198.389 176.651 198.552 176.652 198.552 176.652C198.614 178.551 198.675 180.45 198.769 182.512C198.616 184.936 198.406 187.196 198.252 189.46C198.083 191.942 197.458 192.69 195.192 192.425C193.286 192.203 191.412 191.656 189.389 191.195Z" fill="#202036"/>
<path d="M214.757 201.95C213.192 201.573 211.627 201.195 209.954 200.595C210.334 198.264 210.823 196.156 211.311 194.048C211.311 194.048 211.315 194.068 211.398 194.029C211.55 193.866 211.62 193.743 211.689 193.621C213.275 192.983 213.908 194.296 214.667 195.657C214.701 195.998 214.716 196.076 214.721 196.346C214.728 198.342 214.743 200.146 214.757 201.95Z" fill="#ECF1F8"/>
<path d="M175.11 201.997C174.993 201.938 174.864 201.927 174.8 201.92C173.763 199.732 172.79 197.552 171.816 195.372C172.04 195.212 172.263 195.053 172.486 194.893C174.787 197.997 177.088 201.1 179.389 204.204C179.169 204.466 178.949 204.728 178.729 204.99C177.562 204.012 176.395 203.034 175.11 201.997Z" fill="#C3C6D7"/>
<path d="M214.911 201.943C214.743 200.146 214.728 198.342 214.836 196.339C215.114 196.139 215.269 196.137 215.423 196.135C216.212 197.321 216.93 198.579 217.821 199.662C218.238 200.169 218.988 200.338 219.727 200.632C219.884 200.807 219.9 201.01 219.924 201.366C218.309 201.657 216.687 201.797 214.911 201.943Z" fill="#FAD29D"/>
<path d="M175.386 217.959C172.755 218.123 170.136 218.162 167.521 218.079C167.044 218.063 166.581 217.551 166.112 217.268C166.594 216.998 167.07 216.512 167.558 216.497C170.049 216.417 172.543 216.459 175.209 216.453C175.388 216.896 175.393 217.343 175.386 217.959Z" fill="#F9D5B9"/>
<path d="M211.199 194.113C210.823 196.156 210.334 198.264 209.826 200.531C209.114 200.357 208.421 200.025 207.654 199.584C208.749 197.709 209.918 195.944 211.199 194.113Z" fill="#C3C6D7"/>
<path d="M184.015 190.062C184.635 190.036 185.232 190.145 185.93 190.39C185.459 190.541 184.886 190.556 184.15 190.52C183.988 190.379 183.99 190.288 184.015 190.062Z" fill="#2E2B42"/>
<path d="M184.624 176.26C184.588 176.528 184.428 176.779 184.155 177.042C184.194 176.784 184.347 176.514 184.624 176.26Z" fill="#2E2B42"/>
<path d="M215.364 196.027C215.269 196.137 215.114 196.139 214.845 196.148C214.716 196.076 214.701 195.998 214.68 195.799C214.884 195.759 215.095 195.839 215.364 196.027Z" fill="#F9D3B6"/>
<path d="M198.555 176.545C198.552 176.651 198.389 176.651 198.308 176.651C198.227 176.652 198.223 176.476 198.226 176.388C198.338 176.346 198.449 176.392 198.555 176.545Z" fill="#2E2B42"/>
<path d="M211.602 193.67C211.62 193.744 211.55 193.866 211.388 194.03C211.369 193.953 211.442 193.836 211.602 193.67Z" fill="#C3C6D7"/>
</svg>
